<?xml version="1.0" encoding="UTF-8"?>
<svg version="1.1" xmlns="http://www.w3.org/2000/svg" width="1024" height="1024">
<path d="M0 0 C337.92 0 675.84 0 1024 0 C1024 337.92 1024 675.84 1024 1024 C686.08 1024 348.16 1024 0 1024 C0 686.08 0 348.16 0 0 Z " fill="#FEFEFE" transform="translate(0,0)"/>
<path d="M0 0 C21.78 0 43.56 0 66 0 C70.49980549 11.24951372 70.49980549 11.24951372 72.26391602 16.09326172 C72.66352036 17.18803833 73.06312469 18.28281494 73.47483826 19.4107666 C73.89693069 20.5720105 74.31902313 21.73325439 74.75390625 22.9296875 C75.21133158 24.18458066 75.66890076 25.43942138 76.12660217 26.69421387 C77.09979528 29.36310118 78.0720407 32.03233095 79.04351807 34.70184326 C80.58708022 38.94327508 82.13296027 43.18385982 83.67919922 47.42431641 C85.7866948 53.2044887 87.89342959 58.98493756 89.99951172 64.765625 C94.20336644 76.30377751 98.4119632 87.84019697 102.625 99.375 C103.00453827 100.41414551 103.38407654 101.45329102 103.77511597 102.52392578 C113.04016864 127.88457333 122.37789584 153.21842641 131.72625732 178.54846191 C133.00023304 182.00063149 134.2738418 185.45293626 135.54736328 188.90527344 C137.55286993 194.3416321 139.55921806 199.77767938 141.56634521 205.21343994 C142.30648448 207.21804926 143.04643781 209.22272725 143.78619385 211.22747803 C144.79818672 213.96961286 145.81106615 216.71141848 146.82421875 219.453125 C147.11901627 220.25237396 147.41381378 221.05162292 147.71754456 221.87509155 C148.12745888 222.98347885 148.12745888 222.98347885 148.5456543 224.11425781 C148.79640717 224.79282837 149.04716003 225.47139893 149.30551147 226.17053223 C149.90230956 227.74265737 150.54598698 229.2968442 151.19848633 230.84667969 C152 233 152 233 152 236 C152.96475754 235.99555878 153.92951508 235.99111755 154.92350769 235.98654175 C168.01146098 235.92861301 181.09943674 235.89538877 194.1875 235.875 C195.27828102 235.87328796 196.36906204 235.87157593 197.49289703 235.86981201 C241.96062988 235.80857898 286.41323382 236.33417032 330.875 237 C331.67402221 237.01194743 332.47304442 237.02389486 333.29627943 237.03620434 C353.86440217 237.34401788 374.43230303 237.66490211 395 238 C395.7897322 239.88260964 396.57813568 241.76577669 397.36599731 243.64916992 C398.02477969 245.22211067 398.02477969 245.22211067 398.6968708 246.826828 C400.662405 251.61298282 402.46326908 256.45447711 404.2421875 261.3125 C404.6148172 262.32924805 404.9874469 263.34599609 405.37136841 264.39355469 C406.14767402 266.51713566 406.92230954 268.64132788 407.6953125 270.76611328 C408.48764565 272.93814243 409.28492176 275.10837426 410.08691406 277.27685547 C411.2533675 280.43082807 412.40563901 283.58965144 413.5546875 286.75 C413.91601776 287.71977783 414.27734802 288.68955566 414.64962769 289.6887207 C414.97391754 290.59066162 415.2982074 291.49260254 415.63232422 292.421875 C415.92146698 293.21174805 416.21060974 294.00162109 416.5085144 294.81542969 C417.06857834 297.30481912 416.9187178 298.63413563 416 301 C413.953125 302.97265625 413.953125 302.97265625 411.25 305.0625 C410.25484375 305.84753906 409.2596875 306.63257813 408.234375 307.44140625 C407.70521484 307.85664551 407.17605469 308.27188477 406.63085938 308.69970703 C403.8671005 310.90326687 401.18757197 313.2046661 398.5 315.5 C393.651542 319.62232944 388.74835837 323.66994086 383.8125 327.6875 C380.68200334 330.26146392 377.58827539 332.87569086 374.5 335.5 C369.65040619 339.62101634 364.74839194 343.66991354 359.8125 347.6875 C356.68200334 350.26146392 353.58827539 352.87569086 350.5 355.5 C345.65040619 359.62101634 340.74839194 363.66991354 335.8125 367.6875 C332.68200334 370.26146392 329.58827539 372.87569086 326.5 375.5 C321.64683401 379.62405185 316.74187035 383.67665537 311.80078125 387.6953125 C308.73224213 390.22033075 305.70960188 392.79484769 302.6875 395.375 C298.25148397 399.15792492 293.73399357 402.80532737 289.125 406.375 C283.37891947 410.83114408 277.86723967 415.5125071 272.3972168 420.30200195 C267.94441416 424.19784165 263.40682638 427.96772604 258.80859375 431.69140625 C255.49701322 434.41344254 252.24692334 437.20145714 249 440 C243.07909878 445.10079823 237.08365998 450.09350349 231 455 C230.11441406 455.7425 229.22882812 456.485 228.31640625 457.25 C226 459 226 459 224 459 C224.27972656 459.92554688 224.55945313 460.85109375 224.84765625 461.8046875 C227.53682649 470.78841488 230.0341338 479.81061144 232.4375 488.875 C234.66067278 497.24085018 237.0452616 505.50965155 239.73022461 513.73779297 C242.24354192 521.54278563 244.30107806 529.46085012 246.39453125 537.38671875 C248.10557898 543.81633864 249.93590604 550.17526288 252 556.5 C254.42684082 563.93625557 256.50237828 571.43761389 258.5 579 C260.73242676 587.44535288 263.11810972 595.79844077 265.80517578 604.10961914 C268.46023179 612.3462671 270.80350376 620.66505471 273.15087891 628.99365234 C274.77645703 634.7490776 276.4201151 640.49935259 278.0625 646.25 C278.40635742 647.45462891 278.75021484 648.65925781 279.10449219 649.90039062 C281.1090707 656.91352698 283.13928606 663.91809551 285.20947266 670.91210938 C288.12678288 680.78458011 290.92053912 690.69300552 293.73828125 700.59423828 C294.47074557 703.16716608 295.20392736 705.73988798 295.9375 708.3125 C296.18306641 709.17431885 296.42863281 710.0361377 296.68164062 710.92407227 C297.99884234 715.53555461 299.33199049 720.14181104 300.6875 724.7421875 C304.09023335 736.29638734 307.34085221 747.87628924 310.4296875 759.51855469 C312.52837488 767.38147775 314.79324011 775.18118396 317.22290039 782.94824219 C318.18704562 786.06556783 319 788.7160246 319 792 C315.19414721 790.25212687 311.77916724 787.95317602 308.3125 785.625 C307.65604492 785.18583252 306.99958984 784.74666504 306.32324219 784.29418945 C300.69440565 780.50820584 295.1529079 776.60436906 289.62255859 772.67651367 C284.26396007 768.87595637 278.8635185 765.14109477 273.4375 761.4375 C272.64005371 760.89319336 271.84260742 760.34888672 271.02099609 759.78808594 C269.43880254 758.70874508 267.85644834 757.62963967 266.27392578 756.55078125 C256.57681374 749.93750493 246.929841 743.26097556 237.35058594 736.47802734 C228.46060042 730.19092896 219.47152718 724.0495994 210.4765625 717.9140625 C202.34605533 712.36526029 194.24158088 706.7843024 186.1875 701.125 C179.16467885 696.19047175 172.09986107 691.32299403 165 686.5 C156.99069156 681.05899712 149.03393489 675.54922662 141.1105957 669.98388672 C135.52384647 666.06112209 129.91249416 662.17701931 124.28100586 658.31884766 C118.3964535 654.28293366 112.5416722 650.20481585 106.6875 646.125 C97.21819503 639.52822199 87.70930466 632.99197367 78.17724609 626.48632812 C69.84457162 620.79790895 61.52459626 615.09501043 53.29052734 609.2644043 C51.13041552 607.73556775 48.96579276 606.21329241 46.80078125 604.69140625 C44.54356249 603.10241748 42.31839539 601.49132611 40.10546875 599.83984375 C39.32816406 599.27394531 38.55085938 598.70804688 37.75 598.125 C37.12609375 597.65320313 36.5021875 597.18140625 35.859375 596.6953125 C33.93605208 595.75614015 33.93605208 595.75614015 31.69360352 596.74975586 C28.90207703 598.04545124 26.55611212 599.53453893 24.04296875 601.30859375 C23.10364502 601.96746582 22.16432129 602.62633789 21.1965332 603.30517578 C20.20355225 604.00884277 19.21057129 604.71250977 18.1875 605.4375 C16.10181876 606.90270859 14.0158805 608.3675514 11.9296875 609.83203125 C10.91229492 610.5482666 9.89490234 611.26450195 8.84667969 612.00244141 C5.18699871 614.57049542 1.50352754 617.10231724 -2.1875 619.625 C-8.09048412 623.66881854 -13.95595526 627.76425855 -19.8125 631.875 C-27.12355247 637.00607781 -34.4742284 642.07445075 -41.85473633 647.10498047 C-47.60030493 651.02713357 -53.3071302 655.0018109 -59 659 C-66.17930771 664.04154342 -73.39611111 669.02329099 -80.64453125 673.96484375 C-86.95579574 678.27269698 -93.23162931 682.63001748 -99.5 687 C-108.91481307 693.56219515 -118.3702297 700.06208712 -127.84912109 706.53125 C-143.60967149 717.29350553 -159.26163014 728.21198479 -174.91796875 739.125 C-184.58663843 745.86144756 -194.27263545 752.56919785 -204.00878906 759.20776367 C-209.70253835 763.09625103 -215.35719686 767.03802021 -221 771 C-227.83722809 775.79547177 -234.68511561 780.57474631 -241.5625 785.3125 C-242.7680957 786.1487793 -242.7680957 786.1487793 -243.99804688 787.00195312 C-244.74248047 787.51306641 -245.48691406 788.02417969 -246.25390625 788.55078125 C-247.23339233 789.22620972 -247.23339233 789.22620972 -248.23266602 789.9152832 C-250 791 -250 791 -253 792 C-251.76532532 785.34418077 -250.21989829 778.86827077 -248.3125 772.375 C-248.05339844 771.48039063 -247.79429687 770.58578125 -247.52734375 769.6640625 C-246.68928197 766.77474474 -245.84511101 763.8872631 -245 761 C-244.4203976 759.01307197 -243.84097199 757.02609235 -243.26171875 755.0390625 C-242.37970609 752.01473909 -241.49723818 748.99055263 -240.61328125 745.96679688 C-237.35101181 734.80146319 -234.16380635 723.61493389 -230.984375 712.42578125 C-229.29163401 706.4796699 -227.57488458 700.54117008 -225.83691406 694.6081543 C-221.07073121 678.33111152 -216.42238158 662.02065675 -211.76953125 645.7109375 C-211.52845642 644.86619873 -211.28738159 644.02145996 -211.03900146 643.15112305 C-209.97874239 639.43515702 -208.91964532 635.71888356 -207.86621094 632.00097656 C-205.87040403 624.97259805 -203.78702773 617.9788244 -201.625 611 C-199.00163375 602.46561537 -196.57740639 593.896018 -194.27001953 585.27148438 C-192.4813386 578.63693225 -190.52876127 572.06481226 -188.5 565.5 C-185.89176248 557.05873005 -183.48421788 548.58324169 -181.19702148 540.04980469 C-179.58991419 534.08191969 -177.87059608 528.15986733 -176.0625 522.25 C-173.33064798 513.31884105 -170.89331386 504.31895222 -168.53540039 495.28222656 C-166.63631985 488.08180392 -164.41928478 481.04142864 -162 474 C-161.39410768 472.18807613 -160.78966027 470.37566757 -160.1875 468.5625 C-159.93355469 467.80066406 -159.67960938 467.03882813 -159.41796875 466.25390625 C-158.86863711 463.29162252 -158.90130108 461.84469332 -160 459 C-162.10990196 456.64883382 -164.49667874 454.68576609 -166.9375 452.6875 C-167.62191162 452.11136963 -168.30632324 451.53523926 -169.01147461 450.94165039 C-173.4187643 447.24807502 -177.89617627 443.64321005 -182.4140625 440.0859375 C-186.26973675 436.97577126 -190.0050178 433.72929184 -193.75585938 430.49414062 C-198.18554979 426.6800858 -202.68477414 422.9622906 -207.22265625 419.27734375 C-210.34396367 416.71795946 -213.4245003 414.11406209 -216.5 411.5 C-220.46903543 408.12716411 -224.46017021 404.78823355 -228.5 401.5 C-233.1045358 397.75212202 -237.64019191 393.93016556 -242.1640625 390.0859375 C-246.46013044 386.44140593 -250.81368341 382.8721266 -255.18359375 379.31640625 C-258.33785097 376.72212812 -261.45206371 374.08397609 -264.5625 371.4375 C-268.30855331 368.25086897 -272.0780596 365.11209061 -275.9375 362.0625 C-280.65139417 358.3281163 -285.20232123 354.42152741 -289.75537109 350.49462891 C-294.18377042 346.68151872 -298.68148627 342.96444056 -303.21875 339.28125 C-306.36383693 336.70157196 -309.46483049 334.0737186 -312.5625 331.4375 C-316.30851174 328.25082276 -320.07806211 325.11208863 -323.9375 322.0625 C-328.09589228 318.77241802 -332.11527044 315.34274522 -336.125 311.875 C-340.94706195 307.70627062 -345.82301937 303.72742605 -351 300 C-349.70526611 293.62031922 -347.96528707 287.67056385 -345.69921875 281.57421875 C-345.38096634 280.70537552 -345.06271393 279.83653229 -344.7348175 278.94136047 C-344.0642775 277.11429088 -343.39099379 275.28822611 -342.71508789 273.46313477 C-341.6949241 270.70755337 -340.68365841 267.94883592 -339.67382812 265.18945312 C-339.01614914 263.40084885 -338.35796213 261.61243128 -337.69921875 259.82421875 C-337.4031926 259.01756271 -337.10716644 258.21090668 -336.8021698 257.37980652 C-335.09257722 252.77262127 -333.2775383 248.2220292 -331.38044739 243.68855286 C-330.9336453 242.61976804 -330.4868432 241.55098322 -330.02650166 240.44981098 C-329.68775611 239.64137336 -329.34901056 238.83293573 -329 238 C-308.99879471 237.73276722 -288.99751442 237.47192409 -268.99613953 237.21769714 C-259.6985598 237.09938803 -250.40101008 236.97933637 -241.10351562 236.85449219 C-189.06619158 236.15702298 -137.0419701 235.85716014 -85 236 C-84.8475992 234.88963631 -84.6951984 233.77927261 -84.5381794 232.63526154 C-84.12455294 229.84132266 -83.67364597 227.59106022 -82.69091797 224.98242188 C-82.42394104 224.26277252 -82.15696411 223.54312317 -81.88189697 222.80166626 C-81.58829285 222.03180389 -81.29468872 221.26194153 -80.9921875 220.46875 C-80.67924744 219.63016449 -80.36630737 218.79157898 -80.04388428 217.92758179 C-79.3575609 216.09038565 -78.66809555 214.25436096 -77.97589111 212.41937256 C-76.03682555 207.27730654 -74.12225602 202.12609382 -72.203125 196.9765625 C-71.78845978 195.86596466 -71.37379456 194.75536682 -70.94656372 193.6111145 C-66.01682221 180.39526887 -61.18839139 167.14261042 -56.35926437 153.88977051 C-55.12692621 150.50832008 -53.89364024 147.12721541 -52.66040039 143.74609375 C-51.18721187 139.70699191 -49.71407549 135.66787114 -48.24134827 131.62860107 C-45.16868564 123.20150111 -42.09211731 114.77583857 -39.01171875 106.3515625 C-38.42059799 104.7348893 -38.42059799 104.7348893 -37.8175354 103.08555603 C-37.03478075 100.94484052 -36.25201517 98.80412901 -35.46923828 96.66342163 C-34.89665283 95.09752792 -34.89665283 95.09752792 -34.3125 93.5 C-33.93416016 92.465336 -33.55582031 91.430672 -33.16601562 90.36465454 C-28.61461767 77.91577881 -24.07509781 65.46264938 -19.55078125 53.00390625 C-19.09140224 51.73916365 -18.63201608 50.47442365 -18.17262268 49.20968628 C-15.97438775 43.15736152 -13.77764015 37.10450189 -11.58325195 31.05078125 C-10.78731219 28.85805838 -9.9913343 26.66534934 -9.1953125 24.47265625 C-8.84402786 23.50195694 -8.49274323 22.53125763 -8.1308136 21.53114319 C-5.50927601 14.31533386 -2.75741904 7.1692895 0 0 Z " fill="#010101" transform="translate(479,110)"/>
<path d="M0 0 C2.7328641 3.48133616 4.34699022 6.98829042 5.8984375 11.10546875 C6.1691658 11.80809341 6.4398941 12.51071808 6.71882629 13.2346344 C7.30321949 14.75338483 7.88474825 16.2732399 8.4637146 17.79406738 C9.39236634 20.23311158 10.3285263 22.66915204 11.2668457 25.10449219 C12.23733117 27.62340873 13.20742742 30.14246536 14.17530823 32.66238403 C17.13786021 40.37477296 20.15301175 48.06568301 23.1875 55.75 C23.70079059 57.05134081 24.21405517 58.35269187 24.72729492 59.65405273 C31.50511269 76.8325409 38.30628698 94.0018346 45.10546875 111.171875 C45.46946777 112.09121826 45.8334668 113.01056152 46.20849609 113.95776367 C46.54727783 114.81313721 46.88605957 115.66851074 47.23510742 116.54980469 C47.54330414 117.33850952 47.85150085 118.12721436 48.16903687 118.93981934 C48.82410254 120.56390299 49.55229607 122.1584898 50.3059082 123.73925781 C51.98151088 129.19690142 49.32324662 133.80842113 46.82421875 138.59375 C46.50321701 139.21336609 46.18221527 139.83298218 45.85148621 140.47137451 C44.80508372 142.48534835 43.74662496 144.49269185 42.6875 146.5 C41.95343433 147.90566115 41.21987779 149.31158829 40.48681641 150.71777344 C35.90722253 159.47968974 31.22316763 168.18209005 26.44677734 176.83837891 C21.8129193 185.26086674 17.42163238 193.80415994 13.02368164 202.3515625 C9.41294809 209.34536671 5.71665341 216.27011513 1.7512207 223.06982422 C-0.49654138 226.95267809 -2.30181154 230.85705108 -4 235 C-2.08392944 234.7690564 -2.08392944 234.7690564 -0.12915039 234.53344727 C4.93119602 233.97250347 9.98151412 233.68978806 15.06640625 233.46484375 C15.98590561 233.42186661 16.90540497 233.37888947 17.85276794 233.33460999 C20.75589445 233.19953451 23.65918476 233.06844943 26.5625 232.9375 C28.54493413 232.84596815 30.52735616 232.75417376 32.50976562 232.66210938 C37.33970922 232.4383727 42.16980377 232.21821167 47 232 C45.125 237.75 45.125 237.75 44 240 C43.34 240 42.68 240 42 240 C41.71125 240.721875 41.4225 241.44375 41.125 242.1875 C40.08333333 244.79166667 39.04166667 247.39583333 38 250 C37.34 250 36.68 250 36 250 C35.77828125 250.64453125 35.5565625 251.2890625 35.328125 251.953125 C33.50883577 256.12678852 31.14548089 259.8851632 28.75 263.75 C28.25709473 264.55260254 27.76418945 265.35520508 27.25634766 266.18212891 C24.30363951 270.96849117 21.28622701 275.69044415 18.0234375 280.2734375 C16.90435794 282.16135035 16.42496323 283.85629662 16 286 C15.34 286 14.68 286 14 286 C13.75894531 286.68578125 13.51789063 287.3715625 13.26953125 288.078125 C11.75897946 291.55471803 9.77873872 294.60628259 7.6875 297.75 C4.67865366 302.34449283 1.84568523 306.95405401 -0.7578125 311.79296875 C-2.78150805 315.38852844 -5.06076495 318.81918567 -7.296875 322.28515625 C-9.2908415 325.46361202 -11.10061382 328.71418448 -12.859375 332.02734375 C-14 334 -14 334 -15.59765625 336.11328125 C-17.07387474 338.09939136 -17.56894981 339.58611891 -18 342 C-18.66 342 -19.32 342 -20 342 C-20.268125 342.70125 -20.53625 343.4025 -20.8125 344.125 C-22.48082246 348.16409649 -24.1085546 351.90055068 -26.875 355.3125 C-29.1767076 358.22348314 -30.81785636 361.20768873 -32.57421875 364.46484375 C-34.1565507 367.27836002 -35.87305054 369.97658874 -37.625 372.6875 C-40.00451425 376.37859836 -42.16734888 380.01128875 -44 384 C-44.66 384 -45.32 384 -46 384 C-46 385.32 -46 386.64 -46 388 C-46.66 388 -47.32 388 -48 388 C-48.25652344 388.71027344 -48.51304687 389.42054688 -48.77734375 390.15234375 C-50.52327244 394.21873995 -52.99171922 397.70692216 -55.44140625 401.37890625 C-56.81240181 403.68451532 -57.55086748 405.38518738 -58 408 C-58.66 408 -59.32 408 -60 408 C-60.26167969 408.71671875 -60.52335937 409.4334375 -60.79296875 410.171875 C-62.04793979 413.11232496 -63.55393796 415.58291256 -65.3125 418.25 C-67.42771289 421.51384284 -69.47140944 424.76175649 -71.3125 428.1875 C-74.12707791 433.39163567 -77.32684105 438.35303329 -80.52270508 443.32885742 C-82.72794834 446.79968907 -84.6433377 450.08917461 -86 454 C-86.66 454 -87.32 454 -88 454 C-88.66 455.98 -89.32 457.96 -90 460 C-90.66 460 -91.32 460 -92 460 C-92.268125 460.9075 -92.53625 461.815 -92.8125 462.75 C-93.91170619 465.75835378 -95.08608273 467.50358617 -97 470 C-97.70514846 472.14733927 -97.70514846 472.14733927 -98 474 C-98.66 474 -99.32 474 -100 474 C-100.66 475.65 -101.32 477.3 -102 479 C-103 477 -103 477 -102.60131836 475.20458984 C-102.35003174 474.46418457 -102.09874512 473.7237793 -101.83984375 472.9609375 C-101.54811279 472.09154541 -101.25638184 471.22215332 -100.95581055 470.32641602 C-100.61976807 469.35244873 -100.28372559 468.37848145 -99.9375 467.375 C-99.58534424 466.33593506 -99.23318848 465.29687012 -98.87036133 464.22631836 C-95.08157312 453.10720366 -91.1656013 442.03138285 -87.26873779 430.94979858 C-83.26480472 419.56130678 -79.34499771 408.15138315 -75.5625 396.6875 C-67.83797797 373.2948447 -59.62775119 350.06696387 -51.41015625 326.84375 C-51.1289241 326.0486351 -50.84769196 325.2535202 -50.55793762 324.43431091 C-49.23905354 320.70648689 -47.9178951 316.97950133 -46.59204102 313.25415039 C-46.12643358 311.9415801 -45.6608556 310.62899936 -45.1953125 309.31640625 C-44.79328613 308.18662354 -44.39125977 307.05684082 -43.97705078 305.89282227 C-43.20137363 303.59622092 -42.56738548 301.35157473 -42 299 C-49.82899141 299.54831765 -57.65773874 300.10002504 -65.48632812 300.65405273 C-68.14771744 300.84224404 -70.80918617 301.02918489 -73.47070312 301.21557617 C-77.30353192 301.484132 -81.13615502 301.75547394 -84.96875 302.02734375 C-86.15239136 302.10967758 -87.33603271 302.19201141 -88.55554199 302.27684021 C-93.20298648 302.60866628 -97.83152185 302.94047598 -102.45117188 303.5546875 C-105.62016752 303.95233803 -108.62338093 304.11577624 -111.8125 304.09765625 C-112.82441406 304.09443359 -113.83632813 304.09121094 -114.87890625 304.08789062 C-115.90886719 304.07951172 -116.93882812 304.07113281 -118 304.0625 C-119.06089844 304.05798828 -120.12179687 304.05347656 -121.21484375 304.04882812 C-123.80995598 304.03713843 -126.40494709 304.02075276 -129 304 C-128.34937879 299.97303141 -127.08710268 296.5613321 -125.46484375 292.82421875 C-125.19884872 292.20732178 -124.9328537 291.5904248 -124.65879822 290.95483398 C-123.75608702 288.86379557 -122.84666577 286.77573922 -121.9375 284.6875 C-121.28281274 283.17382311 -120.6286979 281.65989853 -119.97509766 280.14575195 C-118.88996938 277.6321734 -117.80440347 275.1187907 -116.71716309 272.60612488 C-113.50104309 265.17194172 -110.30820664 257.72790952 -107.12109375 250.28125 C-106.6124881 249.0929509 -106.10388245 247.90465179 -105.5798645 246.68034363 C-104.53807489 244.24616822 -103.49631692 241.81197927 -102.45458984 239.3777771 C-95.81422173 223.86298392 -89.17273575 208.34889632 -82.4375 192.875 C-76.10912307 178.32797956 -69.91022245 163.72600394 -63.69989014 149.1282959 C-56.17862501 131.44996992 -48.63383957 113.7819388 -41.0625 96.125 C-40.57303894 94.98343445 -40.08357788 93.8418689 -39.57928467 92.66571045 C-36.57638247 85.66239666 -33.57265287 78.659438 -30.56860352 71.65661621 C-26.44820044 62.05142757 -22.32813887 52.44609271 -18.20956326 42.84012032 C-16.39113261 38.59900867 -14.57175986 34.35830195 -12.75219727 30.11767578 C-11.79960592 27.89617429 -10.84704879 25.67465813 -9.89453125 23.453125 C-9.47161804 22.46804962 -9.04870483 21.48297424 -8.61297607 20.4680481 C-5.69685907 13.66394486 -2.83589071 6.83791313 0 0 Z " fill="#FC0E85" transform="translate(512,210)"/>
<path d="M0 0 C0.95307037 0.02529785 1.90614075 0.0505957 2.88809204 0.07666016 C4.94601945 0.13253805 7.0036462 0.20053906 9.06082153 0.27938843 C13.44390132 0.43591069 17.82666423 0.49566374 22.2118988 0.56086731 C27.8617959 0.64853403 33.51087008 0.77455639 39.16015625 0.89453125 C41.51692288 0.94291348 43.87369371 0.99109159 46.23046875 1.0390625 C51.91541493 1.15520991 57.60030492 1.27383501 63.28515625 1.39453125 C59.71567326 4.99938546 56.05013526 8.39108363 52.16015625 11.64453125 C51.59031006 12.12414307 51.02046387 12.60375488 50.43334961 13.09790039 C46.92939354 16.03989664 43.39717627 18.9450883 39.84765625 21.83203125 C35.60122658 25.28727752 31.4323197 28.82165077 27.28515625 32.39453125 C22.35200304 36.64219249 17.37196009 40.81899263 12.3203125 44.92578125 C8.50656587 48.02782484 4.70673522 51.14651183 0.91015625 54.26953125 C0.17780762 54.87176514 -0.55454102 55.47399902 -1.30908203 56.09448242 C-5.70720697 59.71856472 -10.06877164 63.38115128 -14.40234375 67.08203125 C-18.81319818 70.84878934 -23.31950883 74.46437358 -27.90234375 78.01953125 C-32.89651165 81.89546948 -37.64248168 85.94369703 -42.30078125 90.22265625 C-45.69840065 93.27941416 -49.24547038 96.13653363 -52.796875 99.01171875 C-55.96901782 101.60208973 -59.09527669 104.24135992 -62.21484375 106.89453125 C-67.05170695 111.00511952 -71.9380564 115.04694682 -76.8671875 119.046875 C-79.00575133 120.8099434 -81.11862593 122.59058403 -83.21875 124.3984375 C-83.81042969 124.90632812 -84.40210938 125.41421875 -85.01171875 125.9375 C-86.17029912 126.93459682 -87.32538091 127.93577635 -88.4765625 128.94140625 C-92.49366494 132.39453125 -92.49366494 132.39453125 -94.71484375 132.39453125 C-91.71128544 144.43298673 -88.49425705 156.36774101 -84.77734375 168.20703125 C-82.03258673 176.95149961 -79.49073759 185.72015879 -77.15234375 194.58203125 C-74.4815745 204.69620039 -71.54741033 214.69998498 -68.46484375 224.6953125 C-64.09508128 238.87021722 -60.02303957 253.1215448 -56.21484375 267.45703125 C-53.24232013 278.64358958 -49.94681366 289.70774714 -46.52587891 300.76416016 C-45.25535729 304.88475014 -44.00887831 309.01213805 -42.77734375 313.14453125 C-42.56577637 313.84199463 -42.35420898 314.53945801 -42.13623047 315.25805664 C-41.29685722 318.0865659 -40.71484375 320.42475633 -40.71484375 323.39453125 C-43.73978545 321.96284009 -46.45344084 320.29826549 -49.21484375 318.41015625 C-50.09188965 317.81170898 -50.96893555 317.21326172 -51.87255859 316.59667969 C-52.8105127 315.9524707 -53.7484668 315.30826172 -54.71484375 314.64453125 C-55.69018066 313.97711914 -56.66551758 313.30970703 -57.67041016 312.62207031 C-65.00761272 307.59145559 -72.30470502 302.50489727 -79.58496094 297.39233398 C-87.2575668 292.0048436 -94.97974303 286.69173617 -102.71484375 281.39453125 C-112.11420321 274.9575972 -121.47846192 268.47392755 -130.80639648 261.93383789 C-137.20408277 257.44898051 -143.61256538 252.97990458 -150.02734375 248.51953125 C-151.4496228 247.53049805 -151.4496228 247.53049805 -152.90063477 246.52148438 C-156.88696449 243.74990488 -160.87374713 240.97897787 -164.86083984 238.20849609 C-166.96488303 236.74643013 -169.06880728 235.284193 -171.17260742 233.82177734 C-173.14514758 232.45060787 -175.11795049 231.0798163 -177.09106445 229.70947266 C-181.98985515 226.30395272 -186.86938105 222.8755436 -191.71484375 219.39453125 C-190.18745291 215.96779429 -188.17153204 213.33611843 -185.77734375 210.45703125 C-184.97425781 209.48894531 -184.17117188 208.52085937 -183.34375 207.5234375 C-180.1775361 203.74663923 -176.9921328 199.98603714 -173.80078125 196.23046875 C-170.92051826 192.83673269 -168.08345432 189.41265747 -165.27734375 185.95703125 C-161.32040957 181.09403701 -157.25048433 176.33752922 -153.15869141 171.58837891 C-149.35657858 167.16650111 -145.64944841 162.67524075 -141.97265625 158.1484375 C-139.52325145 155.16084168 -137.03053865 152.2119779 -134.52734375 149.26953125 C-130.22340609 144.2088573 -125.98934748 139.09440817 -121.77734375 133.95703125 C-116.89171757 128.00038192 -111.93549551 122.11403025 -106.90258789 116.28149414 C-103.21016849 111.99521939 -99.62423319 107.63073563 -96.05859375 103.23828125 C-92.81586087 99.30376535 -89.48452767 95.44807425 -86.15625 91.5859375 C-83.12526091 88.06135222 -80.14491794 84.50404293 -77.21484375 80.89453125 C-72.82771473 75.49376953 -68.30260963 70.21985425 -63.765625 64.9453125 C-56.74697985 56.78477148 -49.82224179 48.55504885 -43.02734375 40.20703125 C-39.99117009 36.51438761 -36.89634405 32.87331337 -33.80078125 29.23046875 C-30.90239552 25.81393585 -28.04329275 22.36948287 -25.21484375 18.89453125 C-24.47621094 18.02183594 -23.73757813 17.14914062 -22.9765625 16.25 C-20.90760574 13.63789742 -19.18684202 11.02315734 -17.51098633 8.15356445 C-12.27308043 1.28145261 -8.66424653 -0.45434094 0 0 Z " fill="#FDFDFD" transform="translate(719.71484375,413.60546875)"/>
<path d="M0 0 C0.92167969 0.00902344 1.84335937 0.01804687 2.79296875 0.02734375 C3.79263672 0.04474609 3.79263672 0.04474609 4.8125 0.0625 C1.00822286 5.22133036 -2.92166513 10.26152455 -6.94140625 15.25390625 C-8.96662919 17.78631546 -10.96689626 20.33574679 -12.96069336 22.89282227 C-19.36983756 31.10537023 -25.97896369 39.14473817 -32.62158203 47.16894531 C-38.9235032 54.78941625 -45.14871679 62.47288483 -51.38208008 70.14941406 C-56.68496941 76.67867918 -62.00096381 83.1972431 -67.3515625 89.6875 C-71.42483367 94.63875541 -75.43127341 99.6330854 -79.375 104.6875 C-85.31757072 112.29678603 -91.46534062 119.73227595 -97.62158203 127.16894531 C-101.16278183 131.45106967 -104.67554771 135.75638764 -108.1875 140.0625 C-108.91187256 140.94905273 -108.91187256 140.94905273 -109.65087891 141.85351562 C-115.43625918 148.93620203 -121.19241386 156.03517516 -126.8125 163.25 C-130.84727334 168.42626178 -135.01771629 173.46508376 -139.27832031 178.45654297 C-142.59207959 182.34233432 -145.80710376 186.29233142 -148.98046875 190.29296875 C-151.75623295 193.77618435 -154.56439901 197.23237203 -157.375 200.6875 C-157.92752441 201.36683594 -158.48004883 202.04617188 -159.04931641 202.74609375 C-160.1875758 204.1454158 -161.32592323 205.54466623 -162.46435547 206.94384766 C-164.17649189 209.04896524 -165.88731969 211.15513866 -167.59765625 213.26171875 C-174.47280538 221.72951251 -181.3672468 230.18107166 -188.28125 238.6171875 C-190.58541045 241.4306008 -192.88704538 244.24605556 -195.1875 247.0625 C-195.67766602 247.66223633 -196.16783203 248.26197266 -196.67285156 248.87988281 C-202.4508777 255.95378172 -208.19952839 263.04415807 -213.8125 270.25 C-217.76937912 275.32730369 -221.85980657 280.2650446 -226.04980469 285.15112305 C-229.97944775 289.75656908 -233.71873976 294.4981107 -237.39648438 299.30664062 C-240.12345727 302.83883839 -242.9782572 305.97978649 -246.1875 309.0625 C-244.27433064 301.70542833 -242.07335113 294.51971504 -239.53515625 287.35546875 C-239.19375107 286.38644119 -238.85234589 285.41741364 -238.50059509 284.41902161 C-237.78416805 282.39066022 -237.06560355 280.36305261 -236.3449707 278.33618164 C-235.24768907 275.24348664 -234.16368024 272.14633846 -233.08007812 269.04882812 C-232.37840948 267.06742297 -231.67596256 265.08629321 -230.97265625 263.10546875 C-230.49277 261.72720161 -230.49277 261.72720161 -230.00318909 260.3210907 C-228.2413767 255.41069578 -226.45142566 251.16276706 -223.1875 247.0625 C-222.5275 247.0625 -221.8675 247.0625 -221.1875 247.0625 C-221.07535156 246.33675781 -220.96320313 245.61101562 -220.84765625 244.86328125 C-220.15788613 241.93686007 -219.13239186 239.83962191 -217.625 237.25 C-217.16996094 236.45980469 -216.71492188 235.66960937 -216.24609375 234.85546875 C-215.72208984 233.96794922 -215.72208984 233.96794922 -215.1875 233.0625 C-214.5275 233.0625 -213.8675 233.0625 -213.1875 233.0625 C-213.043125 232.44375 -212.89875 231.825 -212.75 231.1875 C-212.1875 229.0625 -212.1875 229.0625 -211.1875 227.0625 C-210.5275 227.0625 -209.8675 227.0625 -209.1875 227.0625 C-209.07921875 226.32515625 -208.9709375 225.5878125 -208.859375 224.828125 C-208.14738139 221.89736059 -207.18568548 220.24554165 -205.4375 217.8125 C-203.39877641 214.87519207 -201.51250117 211.95808039 -199.8125 208.8125 C-197.12371746 203.85856948 -194.16125418 199.08920804 -191.18359375 194.3046875 C-188.84842681 190.5117549 -186.6172061 186.66385513 -184.4140625 182.79296875 C-184.00929688 182.22191406 -183.60453125 181.65085937 -183.1875 181.0625 C-182.5275 181.0625 -181.8675 181.0625 -181.1875 181.0625 C-181.11402344 180.39863281 -181.04054688 179.73476563 -180.96484375 179.05078125 C-179.90986138 174.99519577 -177.92381989 171.80499497 -175.75 168.25 C-175.34201172 167.55712891 -174.93402344 166.86425781 -174.51367188 166.15039062 C-173.46616953 164.41594547 -172.33317971 162.73372086 -171.1875 161.0625 C-170.5275 161.0625 -169.8675 161.0625 -169.1875 161.0625 C-169.1875 159.7425 -169.1875 158.4225 -169.1875 157.0625 C-168.5275 157.0625 -167.8675 157.0625 -167.1875 157.0625 C-166.95546875 156.23363281 -166.7234375 155.40476562 -166.484375 154.55078125 C-164.93988709 150.39648093 -162.82906407 146.96138255 -160.4375 143.25 C-159.98938965 142.54294922 -159.5412793 141.83589844 -159.07958984 141.10742188 C-156.71280837 137.38685165 -154.29371944 133.70798395 -151.8125 130.0625 C-149.57565846 126.76410654 -147.73890787 123.39576414 -146.046875 119.7890625 C-145.1875 118.0625 -145.1875 118.0625 -143.1875 115.0625 C-142.5275 115.0625 -141.8675 115.0625 -141.1875 115.0625 C-141.02314453 113.95261719 -141.02314453 113.95261719 -140.85546875 112.8203125 C-140.15359056 109.92249962 -139.23572288 108.33379983 -137.5 105.9375 C-135.15823491 102.57295923 -133.1096485 99.1836452 -131.1875 95.5625 C-128.89232594 91.25979771 -126.36348128 87.24881888 -123.61328125 83.2265625 C-122.23413667 81.13328552 -121.00941491 79.01418295 -119.8125 76.8125 C-117.63386395 72.81715116 -115.34987229 68.89636943 -113 65 C-112.32582031 63.87464844 -111.65164063 62.74929688 -110.95703125 61.58984375 C-110.37308594 60.75582031 -109.78914062 59.92179687 -109.1875 59.0625 C-108.5275 59.0625 -107.8675 59.0625 -107.1875 59.0625 C-107.12691406 58.4128125 -107.06632813 57.763125 -107.00390625 57.09375 C-105.83362912 52.74860619 -103.51988485 49.34255598 -101.125 45.5625 C-100.12485601 43.96102741 -99.12485721 42.35946414 -98.125 40.7578125 C-97.62871094 39.96793945 -97.13242187 39.17806641 -96.62109375 38.36425781 C-95.30652685 36.25360783 -94.02098973 34.12927808 -92.75 31.9921875 C-92.387854 31.38697266 -92.02570801 30.78175781 -91.65258789 30.15820312 C-90.68114035 28.53150741 -89.71349923 26.90254029 -88.74609375 25.2734375 C-87.97458984 24.17902344 -87.97458984 24.17902344 -87.1875 23.0625 C-86.5275 23.0625 -85.8675 23.0625 -85.1875 23.0625 C-85.0328125 21.9796875 -85.0328125 21.9796875 -84.875 20.875 C-84.11956053 17.78456579 -83.03218685 15.64506159 -81.1875 13.0625 C-80.5275 13.0625 -79.8675 13.0625 -79.1875 13.0625 C-78.878125 12.11375 -78.56875 11.165 -78.25 10.1875 C-77.1875 7.0625 -77.1875 7.0625 -76.1875 5.0625 C-74.2109375 4.68359375 -74.2109375 4.68359375 -71.5625 4.5 C-70.56162354 4.42644287 -69.56074707 4.35288574 -68.52954102 4.27709961 C-66.87523071 4.1708728 -66.87523071 4.1708728 -65.1875 4.0625 C-63.47808228 3.94177124 -63.47808228 3.94177124 -61.73413086 3.81860352 C-50.68572014 3.0540153 -39.62894829 2.39295621 -28.57226562 1.75976562 C-21.86128736 1.37200358 -15.17337206 0.89825999 -8.48168945 0.2565918 C-5.64821462 0.01687567 -2.84267225 -0.03691782 0 0 Z " fill="#04FAFA" transform="translate(635.1875,436.9375)"/>
<path d="M0 0 C0.76345608 0.00085602 1.52691216 0.00171204 2.31350327 0.00259399 C11.54236097 0.01373314 20.77117996 0.0334126 30 0.0625 C28.35996084 5.16255865 26.64729052 10.13690448 24.42578125 15.01953125 C23.68328125 16.66223999 23.68328125 16.66223999 22.92578125 18.33813477 C22.12720703 20.08888306 22.12720703 20.08888306 21.3125 21.875 C20.45227964 23.77533291 19.5938404 25.67646444 18.73544312 27.57762146 C18.127061 28.92481494 17.51818492 30.27178545 16.90884399 31.61854553 C13.42534469 39.32061973 9.98421415 47.04147451 6.5496521 54.76547241 C5.52449268 57.06994255 4.49730517 59.37350081 3.4699707 61.67700195 C-0.13001819 69.76244667 -3.64921474 77.86983003 -7 86.0625 C-11.52678638 85.18733352 -14.21035079 82.56039784 -17.5625 79.5625 C-18.82203503 78.45862865 -20.08246057 77.35577259 -21.34375 76.25390625 C-21.96507812 75.70879395 -22.58640625 75.16368164 -23.2265625 74.60205078 C-25.63003419 72.51555677 -28.08975068 70.50365422 -30.5625 68.5 C-34.58358091 65.23471697 -38.55345162 61.91692156 -42.5 58.5625 C-46.46903543 55.18966411 -50.46017021 51.85073355 -54.5 48.5625 C-59.1045358 44.81462202 -63.64019191 40.99266556 -68.1640625 37.1484375 C-72.46509753 33.49969215 -76.82346097 29.92605273 -81.19921875 26.3671875 C-84.2677522 23.84217392 -87.29058171 21.26786152 -90.3125 18.6875 C-95.64755596 14.13213948 -101.11719823 9.77276743 -106.68286133 5.50244141 C-108.13879617 4.37731589 -109.57200441 3.22288023 -111 2.0625 C-111 1.7325 -111 1.4025 -111 1.0625 C-100.43765019 0.88578252 -89.87515269 0.72000923 -79.3125 0.5625 C-78.5164032 0.55062275 -77.7203064 0.5387455 -76.90008545 0.52650833 C-51.26597298 0.14721042 -25.63687721 -0.02895595 0 0 Z " fill="#FDFDFD" transform="translate(352,413.9375)"/>
<path d="M0 0 C1.25425781 0.00902344 2.50851562 0.01804687 3.80078125 0.02734375 C4.75339844 0.03894531 5.70601563 0.05054688 6.6875 0.0625 C4.79424778 7.28388716 2.6685475 14.37304944 0.24609375 21.43359375 C-0.07763718 22.38518372 -0.4013681 23.33677368 -0.73490906 24.31719971 C-1.7780335 27.37936563 -2.82630078 30.43973925 -3.875 33.5 C-4.60326342 35.63319437 -5.331453 37.76641396 -6.05957031 39.8996582 C-9.81360027 50.87944879 -13.61782832 61.83709678 -17.5625 72.75 C-21.1744248 82.74336703 -24.5959179 92.78893901 -27.9375 102.875 C-32.4893943 116.61335862 -37.08825899 130.3348773 -41.74334717 144.03866577 C-42.44950282 146.11841248 -43.15464142 148.19850483 -43.85870361 150.27896118 C-44.8509839 153.21034844 -45.84688328 156.14048223 -46.84375 159.0703125 C-47.28060623 160.36356194 -47.28060623 160.36356194 -47.72628784 161.68293762 C-49.1967709 165.99065879 -50.73382068 170.26814238 -52.36816406 174.51660156 C-52.67820374 175.3229303 -52.98824341 176.12925903 -53.30767822 176.96002197 C-54.78358223 180.04818727 -56.80210019 181.7261633 -59.5625 183.6875 C-60.45453125 184.33976563 -61.3465625 184.99203125 -62.265625 185.6640625 C-63.27882813 186.35628906 -63.27882813 186.35628906 -64.3125 187.0625 C-65.474942 183.64705732 -65.13616331 181.58020604 -64.08984375 178.16015625 C-63.80173828 177.19843506 -63.51363281 176.23671387 -63.21679688 175.24584961 C-62.89775391 174.21596924 -62.57871094 173.18608887 -62.25 172.125 C-61.59178305 169.94030437 -60.93424267 167.7554048 -60.27734375 165.5703125 C-59.94460449 164.47364258 -59.61186523 163.37697266 -59.26904297 162.24707031 C-57.89708109 157.67946675 -56.60441759 153.09074026 -55.3125 148.5 C-53.23827326 141.17870924 -51.05205674 133.89728913 -48.8125 126.625 C-45.62978637 116.2778991 -42.75702372 105.86217875 -39.94726562 95.40869141 C-38.6543267 90.62979024 -37.28972886 85.87189344 -35.90917969 81.11767578 C-35.46347105 79.58249765 -35.01901276 78.04695641 -34.57519531 76.51123047 C-31.4046633 65.54315944 -28.18159961 54.59628791 -24.8125 43.6875 C-21.83815386 34.04695104 -19.17355857 24.33700202 -16.62109375 14.57666016 C-16.3478125 13.53815918 -16.07453125 12.4996582 -15.79296875 11.4296875 C-15.55473389 10.51300293 -15.31649902 9.59631836 -15.07104492 8.65185547 C-14.3002531 6.02069419 -13.48113829 3.54448858 -12.3125 1.0625 C-8.38352513 -0.40290144 -4.15283764 -0.03881157 0 0 Z " fill="#F9F9F9" transform="translate(410.3125,550.9375)"/>
<path d="M0 0 C0.66 0 1.32 0 2 0 C1.01 2.97 0.02 5.94 -1 9 C0.27738037 8.8460376 1.55476074 8.6920752 2.87084961 8.53344727 C7.93119602 7.97250347 12.98151412 7.68978806 18.06640625 7.46484375 C18.98590561 7.42186661 19.90540497 7.37888947 20.85276794 7.33460999 C23.75589445 7.19953451 26.65918476 7.06844943 29.5625 6.9375 C31.54493413 6.84596815 33.52735616 6.75417376 35.50976562 6.66210938 C40.33970922 6.4383727 45.16980377 6.21821167 50 6 C48.125 11.75 48.125 11.75 47 14 C46.34 14 45.68 14 45 14 C44.67 14.66 44.34 15.32 44 16 C44 15.01 44 14.02 44 13 C44.66 13 45.32 13 46 13 C46 11.68 46 10.36 46 9 C30.16 9.33 14.32 9.66 -2 10 C-2 8.02 -2 6.04 -2 4 C-1.34 4 -0.68 4 0 4 C0 2.68 0 1.36 0 0 Z " fill="#CE1D75" transform="translate(509,436)"/>
<path d="M0 0 C0.66 0 1.32 0 2 0 C0.66666667 4 -0.66666667 8 -2 12 C10.58600973 11.57105037 23.10832697 10.94475485 35.63916016 9.66064453 C40.79294208 9.14380081 45.81965684 8.90995927 51 9 C50.67 9.66 50.34 10.32 50 11 C47.4736235 11.28628332 45.03433175 11.46717192 42.5 11.5625 C37.87778611 11.35294651 37.87778611 11.35294651 34 13 C31.26105915 13.08858646 28.5474673 13.11523479 25.80859375 13.09765625 C24.98875504 13.0962413 24.16891632 13.09482635 23.32423401 13.09336853 C20.69528618 13.08775289 18.06642227 13.07519779 15.4375 13.0625 C13.65950643 13.05748701 11.88151154 13.05292376 10.10351562 13.04882812 C5.73564455 13.03777839 1.36783652 13.02050331 -3 13 C-2.67 10.03 -2.34 7.06 -2 4 C-1.34 4 -0.68 4 0 4 C0 2.68 0 1.36 0 0 Z " fill="#330215" transform="translate(385,502)"/>
<path d="M0 0 C1.10844919 3.32534757 0.84454356 5.62182575 0 9 C1.32 8.67 2.64 8.34 4 8 C3.67 9.32 3.34 10.64 3 12 C2.34 12 1.68 12 1 12 C0.731875 12.9075 0.46375 13.815 0.1875 14.75 C-0.91170619 17.75835378 -2.08608273 19.50358617 -4 22 C-4.70514846 24.14733927 -4.70514846 24.14733927 -5 26 C-5.66 26 -6.32 26 -7 26 C-7.99 28.475 -7.99 28.475 -9 31 C-10 29 -10 29 -9.41088867 26.64916992 C-8.91939331 25.20441284 -8.91939331 25.20441284 -8.41796875 23.73046875 C-8.06283203 22.67666016 -7.70769531 21.62285156 -7.34179688 20.53710938 C-6.96087891 19.43173828 -6.57996094 18.32636719 -6.1875 17.1875 C-5.81818359 16.09373047 -5.44886719 14.99996094 -5.06835938 13.87304688 C-3.48232859 9.20037807 -1.86589719 4.56934255 0 0 Z " fill="#DE1B84" transform="translate(419,658)"/>
<path d="M0 0 C0.92091738 2.57856865 1.18506902 3.5943287 0.0234375 6.140625 C-0.48316406 7.06101562 -0.48316406 7.06101562 -1 8 C-0.44352783 7.96970703 0.11294434 7.93941406 0.6862793 7.90820312 C14.47089805 7.17535354 28.19686503 6.87297729 42 7 C42 7.33 42 7.66 42 8 C36.89559993 8.28802498 31.79102902 8.57273185 26.6862793 8.85449219 C24.95315675 8.95060655 23.22008243 9.04759512 21.48706055 9.14550781 C18.98238393 9.28686014 16.47754521 9.424968 13.97265625 9.5625 C13.20977798 9.60624756 12.44689972 9.64999512 11.66090393 9.69506836 C6.43340322 9.97789551 1.23524475 10.03634009 -4 10 C-3.18174726 6.34566735 -1.73565302 3.3203797 0 0 Z " fill="#3F0219" transform="translate(512,435)"/>
<path d="M0 0 C1.34084698 3.64914053 0.64228567 5.61954689 -0.875 9.125 C-1.24367188 9.99382812 -1.61234375 10.86265625 -1.9921875 11.7578125 C-2.63356127 13.18474484 -3.30035778 14.60071555 -4 16 C5.57 15.67 15.14 15.34 25 15 C25 15.33 25 15.66 25 16 C18.30139078 17.02250405 11.7684802 17.11756273 5 17.0625 C3.93910156 17.05798828 2.87820313 17.05347656 1.78515625 17.04882812 C-0.80995598 17.03713843 -3.40494709 17.02075276 -6 17 C-5.25277074 12.95175795 -4.06222436 9.4785235 -2.4375 5.6875 C-1.75494141 4.08455078 -1.75494141 4.08455078 -1.05859375 2.44921875 C-0.53458984 1.23685547 -0.53458984 1.23685547 0 0 Z " fill="#C11E70" transform="translate(389,497)"/>
<path d="M0 0 C-1.98 2.64 -3.96 5.28 -6 8 C-6.33 7.01 -6.66 6.02 -7 5 C-6.34 5 -5.68 5 -5 5 C-5 4.34 -5 3.68 -5 3 C-14.9 3 -24.8 3 -35 3 C-35 2.67 -35 2.34 -35 2 C-31.22983769 1.6587842 -27.45878834 1.32851717 -23.6875 1 C-22.63498047 0.90460938 -21.58246094 0.80921875 -20.49804688 0.7109375 C-13.63629553 0.11977123 -6.88717266 -0.09144794 0 0 Z " fill="#26D2D1" transform="translate(640,437)"/>
<path d="M0 0 C1.22912109 0.00902344 2.45824219 0.01804687 3.72460938 0.02734375 C6.71245544 0.05059547 9.69986484 0.08326877 12.6875 0.125 C12.6875 0.455 12.6875 0.785 12.6875 1.125 C-15.46403143 3.51276806 -15.46403143 3.51276806 -27.3125 3.125 C-27.3125 2.795 -27.3125 2.465 -27.3125 2.125 C-18.13036769 0.42591763 -9.32659959 -0.13258151 0 0 Z " fill="#D31D76" transform="translate(441.3125,508.875)"/>
<path d="M0 0 C2.50298434 2.93828597 3.46930939 5.17902761 4 9 C2.35 8.01 0.7 7.02 -1 6 C-1.103125 6.680625 -1.20625 7.36125 -1.3125 8.0625 C-2.15693671 11.67054778 -3.39239001 14.65617122 -5 18 C-5.66 18.33 -6.32 18.66 -7 19 C-5.17778624 12.38757278 -2.94776396 6.19479329 0 0 Z " fill="#C41D6E" transform="translate(512,210)"/>
<path d="M0 0 C0.87840996 3.09720845 0.99435406 4.90645403 0 8 C0.99 8.33 1.98 8.66 3 9 C0.36 12.3 -2.28 15.6 -5 19 C-6 17 -6 17 -5.56274414 15.21240234 C-5.30614014 14.51066895 -5.04953613 13.80893555 -4.78515625 13.0859375 C-4.37426758 11.94511719 -4.37426758 11.94511719 -3.95507812 10.78125 C-3.66052734 9.9871875 -3.36597656 9.193125 -3.0625 8.375 C-2.77181641 7.57320312 -2.48113281 6.77140625 -2.18164062 5.9453125 C-1.46117475 3.96107862 -0.73144862 1.98021163 0 0 Z " fill="#26E2E3" transform="translate(395,727)"/>
<path d="M0 0 C1.24546405 2.49092811 0.7767578 3.41080733 0 6 C-0.66 6 -1.32 6 -2 6 C-2 7.32 -2 8.64 -2 10 C-2.99 10.66 -3.98 11.32 -5 12 C-5.72382467 14.05925139 -5.72382467 14.05925139 -6 16 C-6.66 16 -7.32 16 -8 16 C-8 17.32 -8 18.64 -8 20 C-8.99 20 -9.98 20 -11 20 C-9.56952311 14.89115395 -7.28610306 10.98255739 -4.375 6.625 C-3.95476562 5.98433594 -3.53453125 5.34367188 -3.1015625 4.68359375 C-2.07370232 3.11844302 -1.03768114 1.55865686 0 0 Z " fill="#4FC5E3" transform="translate(511,521)"/>
<path d="M0 0 C1.04590721 2.70139223 1.03429676 3.8917851 0.14453125 6.69921875 C-0.29503906 7.68535156 -0.73460937 8.67148437 -1.1875 9.6875 C-1.64898437 10.73808594 -2.11046875 11.78867187 -2.5859375 12.87109375 C-3.28589844 14.41990234 -3.28589844 14.41990234 -4 16 C-4.40476562 16.91910156 -4.80953125 17.83820313 -5.2265625 18.78515625 C-6.14127553 20.86135741 -7.0655132 22.93264372 -8 25 C-8.66 25 -9.32 25 -10 25 C-7.37589493 16.35588919 -3.68616238 8.23074615 0 0 Z " fill="#CD1E76" transform="translate(408,453)"/>
<path d="M0 0 C1.59244965 3.98112412 0.30965371 6.52964688 -1.25 10.375 C-1.68828125 11.47585938 -2.1265625 12.57671875 -2.578125 13.7109375 C-3.94438219 16.87134562 -5.42729061 19.9378423 -7 23 C-7.66 23 -8.32 23 -9 23 C-6.54234965 15.08090444 -3.33181427 7.58014704 0 0 Z " fill="#D01B77" transform="translate(435,390)"/>
<path d="M0 0 C2.73361578 4.10042367 4.35617165 8.50175731 6.1875 13.0625 C6.56841797 13.98611328 6.94933594 14.90972656 7.34179688 15.86132812 C7.87450195 17.18487305 7.87450195 17.18487305 8.41796875 18.53515625 C8.74563232 19.343479 9.0732959 20.15180176 9.41088867 20.98461914 C10 23 10 23 9 25 C6.34241601 22.34241601 5.71879243 19.7361182 4.5 16.1875 C2.79028898 11.19855685 2.79028898 11.19855685 0.84375 6.30078125 C0 4 0 4 0 0 Z " fill="#CA1F72" transform="translate(526,245)"/>
<path d="M0 0 C0.33 1.32 0.66 2.64 1 4 C0.34 4 -0.32 4 -1 4 C-1.12375 4.680625 -1.2475 5.36125 -1.375 6.0625 C-2.5455139 11.56391533 -3.85716874 16.28575312 -7 21 C-8 19 -8 19 -7.59448242 17.24414062 C-7.35060791 16.55513672 -7.1067334 15.86613281 -6.85546875 15.15625 C-6.45811523 14.02896484 -6.45811523 14.02896484 -6.05273438 12.87890625 C-5.76720703 12.09386719 -5.48167969 11.30882812 -5.1875 10.5 C-4.77661133 9.32244141 -4.77661133 9.32244141 -4.35742188 8.12109375 C-2.26202645 2.26202645 -2.26202645 2.26202645 0 0 Z " fill="#1FDEDE" transform="translate(410,688)"/>
<path d="M0 0 C0.93423645 3.01031744 1.04449911 3.86650268 0 7 C0.66 7.33 1.32 7.66 2 8 C1.01 10.31 0.02 12.62 -1 15 C-1.66 15 -2.32 15 -3 15 C-3.99 17.475 -3.99 17.475 -5 20 C-6 18 -6 18 -5.56274414 16.12060547 C-5.30614014 15.37697754 -5.04953613 14.63334961 -4.78515625 13.8671875 C-4.51123047 13.06152344 -4.23730469 12.25585938 -3.95507812 11.42578125 C-3.51325195 10.16314453 -3.51325195 10.16314453 -3.0625 8.875 C-2.77181641 8.02550781 -2.48113281 7.17601562 -2.18164062 6.30078125 C-1.46106999 4.19813251 -0.73361685 2.09812523 0 0 Z " fill="#AC3279" transform="translate(415,669)"/>
<path d="M0 0 C1.24546405 2.49092811 0.7767578 3.41080733 0 6 C-0.66 6 -1.32 6 -2 6 C-2 7.32 -2 8.64 -2 10 C-2.66 10 -3.32 10 -4 10 C-4 10.99 -4 11.98 -4 13 C-4.66 13 -5.32 13 -6 13 C-6.4021875 14.2065625 -6.4021875 14.2065625 -6.8125 15.4375 C-7.204375 16.283125 -7.59625 17.12875 -8 18 C-8.99 18.33 -9.98 18.66 -11 19 C-10.34 17.35 -9.68 15.7 -9 14 C-8.34 14 -7.68 14 -7 14 C-6.855625 13.38125 -6.71125 12.7625 -6.5625 12.125 C-6 10 -6 10 -5 8 C-4.34 8 -3.68 8 -3 8 C-2.87625 7.236875 -2.7525 6.47375 -2.625 5.6875 C-2 3 -2 3 0 0 Z " fill="#58B9DA" transform="translate(429,656)"/>
<path d="M0 0 C1.40516621 4.40667771 -0.09081045 7.00311944 -2 11 C-3.0127778 13.3927842 -4.02487489 15.78584812 -5.03515625 18.1796875 C-6 20 -6 20 -8 21 C-5.72564796 13.81783567 -2.96415819 6.9241798 0 0 Z " fill="#CC1E75" transform="translate(417,432)"/>
<path d="M0 0 C0.66 0 1.32 0 2 0 C1.33392561 4.40958108 -0.26624729 8.26572186 -2.0625 12.3125 C-2.34416016 12.95767578 -2.62582031 13.60285156 -2.91601562 14.26757812 C-3.6062743 15.84698358 -4.30253198 17.42376493 -5 19 C-5.33 19 -5.66 19 -6 19 C-6.22036864 15.14354879 -5.60355101 12.50776784 -4 9 C-3.34 9 -2.68 9 -2 9 C-1.7834375 7.88625 -1.7834375 7.88625 -1.5625 6.75 C-1.09812508 4.47972261 -0.58136431 2.24240521 0 0 Z " fill="#2D000F" transform="translate(435,385)"/>
<path d="M0 0 C0.33 0 0.66 0 1 0 C1 2.31 1 4.62 1 7 C0.34 7 -0.32 7 -1 7 C-0.9175 7.66 -0.835 8.32 -0.75 9 C-1.10103641 13.21243694 -2.96960773 16.34710677 -5 20 C-6 18 -6 18 -5.56274414 16.12060547 C-5.30614014 15.37697754 -5.04953613 14.63334961 -4.78515625 13.8671875 C-4.51123047 13.06152344 -4.23730469 12.25585938 -3.95507812 11.42578125 C-3.51325195 10.16314453 -3.51325195 10.16314453 -3.0625 8.875 C-2.77181641 8.02550781 -2.48113281 7.17601562 -2.18164062 6.30078125 C-1.46106999 4.19813251 -0.73361685 2.09812523 0 0 Z " fill="#C81B71" transform="translate(466,521)"/>
<path d="M0 0 C1.23925303 3.48738512 0.7983396 5.24703368 -0.75 8.5625 C-1.09546875 9.32691406 -1.4409375 10.09132813 -1.796875 10.87890625 C-2.98522483 12.97395157 -4.21770325 14.39695723 -6 16 C-4.25192871 10.53262809 -2.34205919 5.24175152 0 0 Z " fill="#CC1C75" transform="translate(442,374)"/>
<path d="M0 0 C1.23925303 3.48738512 0.7983396 5.24703368 -0.75 8.5625 C-1.09546875 9.32691406 -1.4409375 10.09132813 -1.796875 10.87890625 C-2.98522483 12.97395157 -4.21770325 14.39695723 -6 16 C-4.25192871 10.53262809 -2.34205919 5.24175152 0 0 Z " fill="#CB1D74" transform="translate(478,290)"/>
<path d="M0 0 C1.65 0 3.3 0 5 0 C3.125 5.75 3.125 5.75 2 8 C1.34 8 0.68 8 0 8 C-0.33 8.66 -0.66 9.32 -1 10 C-1 9.01 -1 8.02 -1 7 C-0.34 7 0.32 7 1 7 C0.67 4.69 0.34 2.38 0 0 Z " fill="#A34994" transform="translate(554,442)"/>
<path d="M0 0 C2.92467808 4.38701713 5.17628972 8.06081313 4.6875 13.4375 C4.460625 14.283125 4.23375 15.12875 4 16 C3.67 16 3.34 16 3 16 C2.814375 14.4221875 2.814375 14.4221875 2.625 12.8125 C2.0841302 9.51319419 1.24000893 7.05868869 0 4 C0 2.68 0 1.36 0 0 Z " fill="#C41F72" transform="translate(558,326)"/>
<path d="M0 0 C2.25597827 2.25597827 2.96574192 4.04603867 4.125 7 C4.47820313 7.886875 4.83140625 8.77375 5.1953125 9.6875 C6 12 6 12 6 14 C5.01 13.67 4.02 13.34 3 13 C2.05078125 11.07421875 2.05078125 11.07421875 1.3125 8.6875 C0.93544922 7.51767578 0.93544922 7.51767578 0.55078125 6.32421875 C0 4 0 4 0 0 Z " fill="#C71C70" transform="translate(520,230)"/>
<path d="M0 0 C1.06287862 3.20299909 0.96603992 4.98952451 -0.25 8.125 C-0.50265625 8.80820312 -0.7553125 9.49140625 -1.015625 10.1953125 C-2 12 -2 12 -5 14 C-3.45730076 9.27934033 -1.92205381 4.58335908 0 0 Z " fill="#CE1C75" transform="translate(465,320)"/>
<path d="M0 0 C1.36959468 3.11271517 0.90994332 4.25666155 -0.25 7.5625 C-1.72532525 10.46046031 -2.70555087 11.87956808 -5 14 C-3.45730076 9.27934033 -1.92205381 4.58335908 0 0 Z " fill="#C81E72" transform="translate(395,483)"/>
<path d="M0 0 C1.36959468 3.11271517 0.90994332 4.25666155 -0.25 7.5625 C-1.72532525 10.46046031 -2.70555087 11.87956808 -5 14 C-3.45730076 9.27934033 -1.92205381 4.58335908 0 0 Z " fill="#CC1E75" transform="translate(471,306)"/>
<path d="M0 0 C0.93045933 2.55144824 1.08564091 3.74006478 0.22265625 6.359375 C-0.16019531 7.14828125 -0.54304688 7.9371875 -0.9375 8.75 C-1.50791016 9.94882812 -1.50791016 9.94882812 -2.08984375 11.171875 C-2.39019531 11.77515625 -2.69054687 12.3784375 -3 13 C-3.66 13 -4.32 13 -5 13 C-4.54554036 11.58208592 -4.08625056 10.16571954 -3.625 8.75 C-3.24214844 7.56664062 -3.24214844 7.56664062 -2.8515625 6.359375 C-2.04826333 4.13372042 -1.10288338 2.09068328 0 0 Z " fill="#C81B72" transform="translate(484,276)"/>
<path d="M0 0 C1.79378179 2.69067269 2.97313958 5.08578257 4.1875 8.0625 C4.55230469 8.94035156 4.91710937 9.81820313 5.29296875 10.72265625 C6 13 6 13 5 15 C1.10640794 10.10160999 0.2757735 6.2049038 0 0 Z " fill="#C51E71" transform="translate(538,275)"/>
<path d="M0 0 C1.24546405 2.49092811 0.7767578 3.41080733 0 6 C-0.66 6 -1.32 6 -2 6 C-2 6.99 -2 7.98 -2 9 C-2.66 9 -3.32 9 -4 9 C-4 9.99 -4 10.98 -4 12 C-4.66 12 -5.32 12 -6 12 C-5.67 10.68 -5.34 9.36 -5 8 C-4.34 8 -3.68 8 -3 8 C-2.87625 7.236875 -2.7525 6.47375 -2.625 5.6875 C-2 3 -2 3 0 0 Z " fill="#52C4DE" transform="translate(417,676)"/>
<path d="M0 0 C1.24546405 2.49092811 0.7767578 3.41080733 0 6 C-0.66 6 -1.32 6 -2 6 C-2 7.32 -2 8.64 -2 10 C-2.99 10 -3.98 10 -5 10 C-3.84414715 6.08788267 -2.64465038 3.1254959 0 0 Z " fill="#51C2E1" transform="translate(517,511)"/>
<path d="M0 0 C0.185625 0.9590625 0.185625 0.9590625 0.375 1.9375 C0.684375 2.9584375 0.684375 2.9584375 1 4 C1.66 4.33 2.32 4.66 3 5 C1.35 6.98 -0.3 8.96 -2 11 C-3 9 -3 9 -2.44140625 6.8359375 C-2.15136719 6.02382813 -1.86132812 5.21171875 -1.5625 4.375 C-1.27503906 3.55773437 -0.98757813 2.74046875 -0.69140625 1.8984375 C-0.46324219 1.27195312 -0.23507812 0.64546875 0 0 Z " fill="#33BDBE" transform="translate(392,735)"/>
<path d="M0 0 C1.24546405 2.49092811 0.7767578 3.41080733 0 6 C-0.66 6 -1.32 6 -2 6 C-2 6.99 -2 7.98 -2 9 C-2.99 9 -3.98 9 -5 9 C-3.7508258 5.54074837 -2.32472205 2.85306797 0 0 Z " fill="#4BC8E3" transform="translate(439,640)"/>
<path d="M0 0 C0.33 1.32 0.66 2.64 1 4 C0.34 4 -0.32 4 -1 4 C-1.33 5.65 -1.66 7.3 -2 9 C-2.66 9 -3.32 9 -4 9 C-2.25 2.25 -2.25 2.25 0 0 Z " fill="#27D3D5" transform="translate(410,688)"/>
<path d="M0 0 C1.13757948 4.55031791 0.4283779 6.63084406 -1 11 C-1.66 10.67 -2.32 10.34 -3 10 C-2.01 6.7 -1.02 3.4 0 0 Z " fill="#CA1C70" transform="translate(419,658)"/>
<path d="M0 0 C1 2 1 2 0.3125 4.4375 C-1.10829685 7.21143671 -2.39746148 8.35172561 -5 10 C-3.84414715 6.08788267 -2.64465038 3.1254959 0 0 Z " fill="#52C5E4" transform="translate(547,462)"/>
<path d="M0 0 C0.33 0.66 0.66 1.32 1 2 C-0.25 5.5625 -0.25 5.5625 -2 9 C-2.99 9.33 -3.98 9.66 -5 10 C-5 9.34 -5 8.68 -5 8 C-4.34 8 -3.68 8 -3 8 C-2.87625 7.236875 -2.7525 6.47375 -2.625 5.6875 C-2 3 -2 3 0 0 Z " fill="#50C5E3" transform="translate(553,452)"/>
<path d="M0 0 C1.24546405 2.49092811 0.7767578 3.41080733 0 6 C-0.66 6 -1.32 6 -2 6 C-2 6.99 -2 7.98 -2 9 C-2.99 9.33 -3.98 9.66 -5 10 C-5 9.34 -5 8.68 -5 8 C-4.34 8 -3.68 8 -3 8 C-2.87625 7.236875 -2.7525 6.47375 -2.625 5.6875 C-2 3 -2 3 0 0 Z " fill="#56BEDF" transform="translate(531,488)"/>
</svg>
